<svg xmlns="http://www.w3.org/2000/svg" xmlns:xlink="http://www.w3.org/1999/xlink" viewBox="0 0 154 154" preserveAspectRatio="xMidYMid" width="154" height="154" style="shape-rendering:auto;background-position-x:0%;background-position-y:0%;background-size:auto;background-origin:padding-box;background-clip:border-box;background:scroll rgb(249, 170, 0) none  repeat;width:154px;height:154px;;animation:none"><g id="pattern-group" transform="matrix(0.6015625596046448,0,0,0.6015625596046448,0,0)" style="transform:matrix(0.601563, 0, 0, 0.601563, 0, 0);;animation:none"><defs><g id="pat-0.5402655890077561"><polyline stroke-dasharray="142.71990966796875 47.57330322265625 142.71990966796875 47.57330322265625 142.71990966796875 47.57330322265625 142.71990966796875 47.57330322265625 142.71990966796875 47.57330322265625 142.71990966796875 47.57330322265625 142.71990966796875 47.57330322265625 142.71990966796875 47.57330322265625 142.71990966796875 47.57330322265625 142.71990966796875 47.57330322265625 142.71990966796875 47.57330322265625 142.71990966796875 47.57330322265625 142.71990966796875 47.57330322265625 142.71990966796875 47.57330322265625 142.71990966796875 47.57330322265625" points="-3,-2 16.5,15.5 31.5,0.5 63.5,32.5 48.5,47.5 31.5,32.5 -0.5,64.5 16.5,79.5 31.5,64.5 47.5,79.5 95.5,32.5 80.5,15.5 95.5,0.5 127.5,32.5 48.5,111.5 31.5,96.5 -0.5,128.5 16.5,143.5 31.5,127.5 63.5,160.5 80.5,143.5 63.5,128.5 159.5,32.5 144.5,15.5 159.5,0.5 175.5,16.5 192,0 208,16 224,0 256,32 240,48 224,32 207.501,48.501 223.5,64.5 207.5,80.5 176.5,47.5 144.5,80.5 159.5,96.5 175.5,80.5 191.5,96.5 159.5,128.5 127.5,96.5 95.5,127.5 111.5,143.5 127.5,127.5 175.5,176.5 159.5,192.5 127.5,160.5 111.5,176.5 95.5,160.5 63.5,192.5 31.5,160.5 16.5,175.5 31.999,191.483 0,224 16,240 32,225 64,256 80,240 64,224 79.667,208.333 95.5,192.5 111.5,207.5 95.5,224.5 111.5,239.5 127.5,256.5 143.5,240.5 127.5,224.5 143.5,208.5 175.5,240.5 191.5,224.5 175.5,208.5 207.5,176.5 224,160 208,144 191.998,160.998 175.5,144.5 207.5,112.5 240,80 256,96 223.5,128.5 256,160 239.5,176.5 256,192 240,208 224,192 207.5,208.5 223.5,224.5 207.5,240.5 223.5,256.5 240,240 259,259" stroke-miterlimit="10" stroke-linejoin="round" stroke-linecap="round" stroke-width="5" stroke="#ffe200" fill="none" clip-rule="evenodd" fill-rule="evenodd" stroke-dashoffset="0px" style="fill:none;stroke:rgb(255, 226, 0);;animation:none"></polyline></g></defs>
<use y="0" x="0" xlink:href="#pat-0.5402655890077561"></use>
<use y="0" x="-256" xlink:href="#pat-0.5402655890077561"></use>
<use y="0" x="256" xlink:href="#pat-0.5402655890077561"></use>
<use y="-256" x="0" xlink:href="#pat-0.5402655890077561"></use>
<use y="256" x="0" xlink:href="#pat-0.5402655890077561"></use></g>
<STYLE type="text/css"></STYLE><!-- [ldio] generated by https://loading.io --></svg>